<svg id="Layer_1" data-name="Layer 1" xmlns="http://www.w3.org/2000/svg" viewBox="0 0 951.9 245.4"><defs><style>.cls-1{fill:#78db58;}.cls-2{fill:#6966cc;}.cls-3{fill:#4e2989;}.cls-4{fill:#62995c;}.cls-5{fill:#4f008c;}.cls-6{fill:#6d1b61;}.cls-7{fill:#d3480b;}.cls-8{fill:#fff;}</style></defs><path class="cls-1" d="M289.9,487v77.1a9.6,9.6,0,0,1-9.7,9.6H209.7a9.6,9.6,0,0,1-9.7-9.6v-11h31.8a9.6,9.6,0,0,0,9.6-9.7V466.8l41.3,10.8A9.8,9.8,0,0,1,289.9,487Z" transform="translate(-50.1 -328.3)"/><path class="cls-2" d="M271.3,338v95.5a9.6,9.6,0,0,1-9.7,9.7H241.4V412.9a9.5,9.5,0,0,0-6.4-9.1l-53.6-18.9V356.5a9.8,9.8,0,0,1,7.2-9.4l70.6-18.4A9.6,9.6,0,0,1,271.3,338Z" transform="translate(-50.1 -328.3)"/><path class="cls-3" d="M241.4,412.9v30.3H191.1a9.6,9.6,0,0,1-9.7-9.7V384.9L235,403.8A9.5,9.5,0,0,1,241.4,412.9Z" transform="translate(-50.1 -328.3)"/><path class="cls-4" d="M241.4,466.8v76.6a9.6,9.6,0,0,1-9.6,9.7H200V468.5a9.6,9.6,0,0,1,12.1-9.3Z" transform="translate(-50.1 -328.3)"/><path class="cls-5" d="M241.4,443.2v23.6l-29.3-7.6a9.6,9.6,0,0,0-12.1,9.3v84.6H110.7a9.7,9.7,0,0,1-9.7-9.7v-19h29.3a9.7,9.7,0,0,0,9.7-9.7V419.2a9.7,9.7,0,0,0-12.1-9.4l-26.9,7V370.2a9.7,9.7,0,0,1,12.9-9.2l67.5,23.9v48.6a9.6,9.6,0,0,0,9.7,9.7Z" transform="translate(-50.1 -328.3)"/><path class="cls-6" d="M140,419.2v95.5a9.7,9.7,0,0,1-9.7,9.7H101V416.8l26.9-7A9.7,9.7,0,0,1,140,419.2Z" transform="translate(-50.1 -328.3)"/><path class="cls-7" d="M101,416.8V524.4H59.8a9.7,9.7,0,0,1-9.7-9.7V437.6a9.8,9.8,0,0,1,7.2-9.4Z" transform="translate(-50.1 -328.3)"/><path class="cls-8" d="M381.1,433.3a36.7,36.7,0,0,0-11.2-5.7,118.2,118.2,0,0,0-15.6-3.9,82.3,82.3,0,0,1-11.7-3,17.2,17.2,0,0,1-7.5-4.6,10.7,10.7,0,0,1-2.6-7.3,10.9,10.9,0,0,1,2.2-6.6,15.6,15.6,0,0,1,6.6-4.4,30.8,30.8,0,0,1,10.8-1.6,32.6,32.6,0,0,1,8.3,1.2,69.4,69.4,0,0,1,8.4,3.1,28.3,28.3,0,0,1,6.4,4,6.4,6.4,0,0,0,4,1.3,7.6,7.6,0,0,0,5.9-2.7,8.2,8.2,0,0,0,2.6-5.9c0-3-1.5-5.6-4.3-7.9a43.1,43.1,0,0,0-13.5-7.3,53.6,53.6,0,0,0-17.8-2.9,47.2,47.2,0,0,0-18.7,3.6A30.3,30.3,0,0,0,320,393.1a27.1,27.1,0,0,0-5,16.4,29.8,29.8,0,0,0,2.1,11.5,24.8,24.8,0,0,0,6.1,8.9,33.1,33.1,0,0,0,10.2,6.2,59.1,59.1,0,0,0,14.1,3.7,59.2,59.2,0,0,1,13.9,3.3,19.8,19.8,0,0,1,8.2,5.3,10.7,10.7,0,0,1,2.6,7.5,9,9,0,0,1-2.8,6.6,19.5,19.5,0,0,1-7.4,4.6,29.7,29.7,0,0,1-10.1,1.7,34.7,34.7,0,0,1-13.7-2.4,47.2,47.2,0,0,1-11.2-6.9,7.7,7.7,0,0,0-5-1.8,8.4,8.4,0,0,0-6.2,2.6,8.5,8.5,0,0,0-2.4,6,8.6,8.6,0,0,0,1,4.1,10.7,10.7,0,0,0,3,3.7,44.5,44.5,0,0,0,15.9,9.2,62.8,62.8,0,0,0,18.6,2.6,48.5,48.5,0,0,0,18.8-3.7,35,35,0,0,0,14-10.7,26.4,26.4,0,0,0,5.3-16.6,32.3,32.3,0,0,0-2.2-12.8A21,21,0,0,0,381.1,433.3Z" transform="translate(-50.1 -328.3)"/><path class="cls-8" d="M465.3,408.8a33.9,33.9,0,0,0-18.6-5.2,27.2,27.2,0,0,0-9.9,1.8,29.4,29.4,0,0,0-8.2,4.5,27.6,27.6,0,0,0-5.2,4.9v-.7a9,9,0,0,0-2.5-6.4,9.2,9.2,0,0,0-12.8,0,8.6,8.6,0,0,0-2.5,6.4V505a8.6,8.6,0,0,0,8.9,9,8.3,8.3,0,0,0,6.4-2.6,9,9,0,0,0,2.5-6.4V475.9A22.4,22.4,0,0,0,427,479a35.9,35.9,0,0,0,9.1,4.9,31.8,31.8,0,0,0,11.2,2,32.5,32.5,0,0,0,18.1-5.3,37.9,37.9,0,0,0,12.9-14.5,46,46,0,0,0,4.8-21.5,45.2,45.2,0,0,0-4.8-21.3A38,38,0,0,0,465.3,408.8Zm-2,48.5a22.2,22.2,0,0,1-7.5,9,19.6,19.6,0,0,1-11.4,3.3,20.1,20.1,0,0,1-11.4-3.3,22.4,22.4,0,0,1-7.6-9,29.2,29.2,0,0,1-2.8-12.7,28.5,28.5,0,0,1,2.8-12.6,22.8,22.8,0,0,1,7.6-8.9,20.8,20.8,0,0,1,11.4-3.2,20.3,20.3,0,0,1,11.4,3.2,22.5,22.5,0,0,1,7.5,8.9,27.2,27.2,0,0,1,2.8,12.6A27.9,27.9,0,0,1,463.3,457.3Z" transform="translate(-50.1 -328.3)"/><path class="cls-8" d="M563.6,403.6a8.1,8.1,0,0,0-6.3,2.6,8.8,8.8,0,0,0-2.6,6.4v.2a34.8,34.8,0,0,0-2.8-2.4,37.3,37.3,0,0,0-9.3-4.9,34.2,34.2,0,0,0-11.7-1.9,32.4,32.4,0,0,0-18.1,5.2,37.6,37.6,0,0,0-13,14.6,49.9,49.9,0,0,0,0,42.7,37.5,37.5,0,0,0,13.1,14.5,34.2,34.2,0,0,0,18.6,5.3,29.6,29.6,0,0,0,10.4-1.9,33.5,33.5,0,0,0,8.4-4.5,36.4,36.4,0,0,0,4.5-4,8.7,8.7,0,0,0,8.8,8.9,8.7,8.7,0,0,0,6.4-2.6,8.8,8.8,0,0,0,2.5-6.5V412.6a8.8,8.8,0,0,0-2.5-6.5A8.6,8.6,0,0,0,563.6,403.6Zm-10.9,53.8a21.4,21.4,0,0,1-7.6,8.9,20.1,20.1,0,0,1-11.4,3.3,19.8,19.8,0,0,1-11.3-3.3,22.1,22.1,0,0,1-7.6-8.9,30.2,30.2,0,0,1,0-25.4,22.8,22.8,0,0,1,7.6-8.9,20.5,20.5,0,0,1,11.3-3.2,20.8,20.8,0,0,1,11.4,3.2,22,22,0,0,1,7.6,8.9,30.2,30.2,0,0,1,0,25.4Z" transform="translate(-50.1 -328.3)"/><path class="cls-8" d="M648,463.9a7.5,7.5,0,0,0-4.9,1.4,39.5,39.5,0,0,1-3.7,2.5,16.1,16.1,0,0,1-4.5,1.3,37.4,37.4,0,0,1-6.3.5,21.2,21.2,0,0,1-11.8-3.3,22.6,22.6,0,0,1-8-8.8,29.9,29.9,0,0,1-.1-25.5,22.4,22.4,0,0,1,8.1-8.9,24.5,24.5,0,0,1,12.8-3.2,35.4,35.4,0,0,1,4.5.5,14.8,14.8,0,0,1,4.6,1.4l2.8,1.9a9.5,9.5,0,0,0,2.7,1.7,9.4,9.4,0,0,0,3.9.7,6,6,0,0,0,5.2-2.6,9.5,9.5,0,0,0,1.8-5.5,10.3,10.3,0,0,0-3.5-7.7,23.1,23.1,0,0,0-9.8-4.9,53.8,53.8,0,0,0-14.7-1.8,38.5,38.5,0,0,0-20.2,5.2,37.3,37.3,0,0,0-13.8,14.6,44.5,44.5,0,0,0-5,21.4,46.2,46.2,0,0,0,4.7,20.9A36.1,36.1,0,0,0,606,480.4c5.8,3.7,12.5,5.5,20.3,5.5A56.8,56.8,0,0,0,641,484a32.8,32.8,0,0,0,10.8-4.9c2.8-2,4.2-4.3,4.2-6.7a8.8,8.8,0,0,0-2.1-6A7.1,7.1,0,0,0,648,463.9Z" transform="translate(-50.1 -328.3)"/><path class="cls-8" d="M729.5,415.2a38.7,38.7,0,0,0-11.9-8.5,33.5,33.5,0,0,0-14.3-3.1,37,37,0,0,0-18.5,5,38.1,38.1,0,0,0-14.2,14.5c-3.6,6.3-5.4,13.8-5.4,22.7a41,41,0,0,0,5,20.5,36.2,36.2,0,0,0,14.2,14.3c6.2,3.5,13.5,5.3,21.9,5.3a43.5,43.5,0,0,0,14.3-2.5,33.5,33.5,0,0,0,10.9-5.7c2.7-2.2,4.1-4.6,4.1-7.3a7.1,7.1,0,0,0-2.1-5.1,7.4,7.4,0,0,0-5.4-2.3,11.6,11.6,0,0,0-5.1,1.4l-3.6,2.1a18.8,18.8,0,0,1-5.3,2.2,34.1,34.1,0,0,1-8.7.9,23.1,23.1,0,0,1-11.2-2.9,23.3,23.3,0,0,1-8.6-8.5,24.6,24.6,0,0,1-2.8-7.3h49a9.5,9.5,0,0,0,6.2-2.3,7.4,7.4,0,0,0,2.8-5.7,38.9,38.9,0,0,0-3-15.2A42.6,42.6,0,0,0,729.5,415.2Zm-41.2,9.9a15.8,15.8,0,0,1,6.7-4,27.8,27.8,0,0,1,8.3-1.2,20.2,20.2,0,0,1,8.7,2,19,19,0,0,1,6.8,5.4,13.6,13.6,0,0,1,3,7.7v1H683a18.9,18.9,0,0,1,.9-3.4A19.6,19.6,0,0,1,688.3,425.1Z" transform="translate(-50.1 -328.3)"/><path class="cls-8" d="M810.6,451.4a20.6,20.6,0,0,0-6.2-6.9,37,37,0,0,0-8.4-4.3c-3.1-1.1-6.1-2-9.1-2.8s-5.6-1.6-8.1-2.5a17,17,0,0,1-6-3.2,7,7,0,0,1-2.2-5.4c0-2.5.6-4.3,1.9-5.4a9.7,9.7,0,0,1,4.5-2.3,30.1,30.1,0,0,1,4.9-.5,24.7,24.7,0,0,1,9.7,1.9,18.6,18.6,0,0,1,6.7,5.2,7.5,7.5,0,0,0,4.9,2,6.9,6.9,0,0,0,5.2-1.5c2.1-1.7,3-3.6,2.8-5.7a10.6,10.6,0,0,0-1.9-5.3,25.4,25.4,0,0,0-7.7-6.5,37.6,37.6,0,0,0-9.7-3.5,40.4,40.4,0,0,0-9.6-1.1,34.1,34.1,0,0,0-13.8,2.8,26.6,26.6,0,0,0-10.8,8,19.5,19.5,0,0,0-4.1,12.6c0,4.4.8,8,2.5,10.8a18.8,18.8,0,0,0,6.5,6.9,34,34,0,0,0,8.8,4.2l9.4,3c3,.8,5.7,1.6,8.1,2.5a19.4,19.4,0,0,1,5.9,3.3,6.8,6.8,0,0,1,2.2,5.2c0,2.6-.7,4.5-2,5.7a10.1,10.1,0,0,1-4.7,2.4l-4.9.6a27.3,27.3,0,0,1-11.8-2.3,34.9,34.9,0,0,1-9.1-6.7,8.7,8.7,0,0,0-5.2-2.8,8.4,8.4,0,0,0-5,1.3c-2.5,1.6-3.8,3.5-3.9,5.6a8.4,8.4,0,0,0,1.4,5.4,30.1,30.1,0,0,0,14.5,10.7,53.8,53.8,0,0,0,17.5,3.1,36,36,0,0,0,13.6-2.8,27.7,27.7,0,0,0,11.2-8.1,19.6,19.6,0,0,0,4.4-12.9A21.4,21.4,0,0,0,810.6,451.4Z" transform="translate(-50.1 -328.3)"/><path class="cls-8" d="M503.7,536.1a1.5,1.5,0,0,1-1.7-1.5V502.2a1.3,1.3,0,0,1,.4-1,1.6,1.6,0,0,1,1.1-.5h13.7a9.7,9.7,0,0,1,5.1,1.3,8.4,8.4,0,0,1,3.6,3.4,9,9,0,0,1,1.3,4.9,10.7,10.7,0,0,1-.8,4.1,9,9,0,0,1-2.3,3.2,10.9,10.9,0,0,1-3.3,1.9l-1.7-.6a7,7,0,0,1,3.4,1.2,8.4,8.4,0,0,1,2.7,2.9,9.3,9.3,0,0,1,1,4.2,26.8,26.8,0,0,0,.2,3.4,7.4,7.4,0,0,0,.5,1.9,2.8,2.8,0,0,0,1,.9,1.5,1.5,0,0,1,.6.9.9.9,0,0,1-.1,1,.9.9,0,0,1-.6.6l-.8.2-.8-.2a4.3,4.3,0,0,1-1.4-1.3,5.8,5.8,0,0,1-1.2-2.5,18.6,18.6,0,0,1-.5-4.7,7.6,7.6,0,0,0-.6-3.2,6.3,6.3,0,0,0-1.7-1.9,5.1,5.1,0,0,0-2.1-1l-2.3-.2H504.6l.6-.8v14.3a1.5,1.5,0,0,1-.4,1.1A1.4,1.4,0,0,1,503.7,536.1Zm.9-17.9h12.7a5.9,5.9,0,0,0,3.2-1.1,6.6,6.6,0,0,0,2.5-2.7,8.5,8.5,0,0,0,1-4,6.6,6.6,0,0,0-2-4.8,6.9,6.9,0,0,0-5.1-1.9H504.8l.4-.6v15.8Z" transform="translate(-50.1 -328.3)"/><path class="cls-8" d="M570.9,536.7A14.1,14.1,0,0,1,564,535a11.8,11.8,0,0,1-4.7-4.7,16.3,16.3,0,0,1,.1-14.3,12.5,12.5,0,0,1,4.4-4.7,11.4,11.4,0,0,1,10-.8,11.4,11.4,0,0,1,3.8,2.3,11.6,11.6,0,0,1,2.6,3.8,13.2,13.2,0,0,1,1.1,5.1,1.6,1.6,0,0,1-.5,1.1,1.5,1.5,0,0,1-1.1.4H559.4l-.6-2.7h20l-.7.6v-1a7.9,7.9,0,0,0-1.6-4.1,8.4,8.4,0,0,0-3.1-2.5,8.6,8.6,0,0,0-7-.3,9.1,9.1,0,0,0-2.9,1.9,9.3,9.3,0,0,0-2.1,3.3,13.2,13.2,0,0,0-.8,4.7,12.6,12.6,0,0,0,1.2,5.5,9.2,9.2,0,0,0,3.5,3.8,11,11,0,0,0,5.5,1.4,8,8,0,0,0,3.2-.5,11.9,11.9,0,0,0,2.5-1.3,15.3,15.3,0,0,0,1.8-1.8,1.4,1.4,0,0,1,1-.4,1.3,1.3,0,0,1,1,.4,1.5,1.5,0,0,1-.2,2,13.7,13.7,0,0,1-3.9,3.1A10.8,10.8,0,0,1,570.9,536.7Z" transform="translate(-50.1 -328.3)"/><path class="cls-8" d="M633.5,510.3a1.5,1.5,0,0,1,1.1.4,2.1,2.1,0,0,1,.4,1.2v22.7a1.6,1.6,0,0,1-.5,1.1,1.3,1.3,0,0,1-1,.4,1.2,1.2,0,0,1-1.1-.4,1.6,1.6,0,0,1-.5-1.1v-6l.9-.3a6.3,6.3,0,0,1-.8,2.8,9,9,0,0,1-2.1,2.7,11.8,11.8,0,0,1-3.2,2.1,11.1,11.1,0,0,1-10.2-1,11.9,11.9,0,0,1-4.2-4.9,15.3,15.3,0,0,1-1.6-6.9,15.7,15.7,0,0,1,1.6-7,13,13,0,0,1,4.3-4.7,11.8,11.8,0,0,1,10.1-1,11.5,11.5,0,0,1,3.3,2.1,10.5,10.5,0,0,1,2.2,3,8.9,8.9,0,0,1,.8,3.5l-1.1-.7v-6.4a1.7,1.7,0,0,1,.5-1.2A1.2,1.2,0,0,1,633.5,510.3Zm-10.6,23.5a8,8,0,0,0,4.8-1.4,9.4,9.4,0,0,0,3.3-3.8,12.6,12.6,0,0,0,1.1-5.5,11.4,11.4,0,0,0-1.1-5.3,9.4,9.4,0,0,0-3.3-3.8,8,8,0,0,0-4.8-1.4,8.5,8.5,0,0,0-4.7,1.3,9.1,9.1,0,0,0-3.3,3.7,12,12,0,0,0-1.2,5.5,12.6,12.6,0,0,0,1.2,5.5,9.4,9.4,0,0,0,3.3,3.8A7.9,7.9,0,0,0,622.9,533.8Z" transform="translate(-50.1 -328.3)"/><path class="cls-8" d="M670.6,534.6a1.6,1.6,0,0,1-.5,1.1,1.5,1.5,0,0,1-1.1.4,1.2,1.2,0,0,1-1-.4,1.6,1.6,0,0,1-.5-1.1V500.2a1.8,1.8,0,0,1,1.5-1.5,1.4,1.4,0,0,1,1.1.5,1.4,1.4,0,0,1,.5,1Z" transform="translate(-50.1 -328.3)"/><path class="cls-8" d="M743.5,500.7H762a1.7,1.7,0,0,1,1.2.5,1.2,1.2,0,0,1,.4,1,1.4,1.4,0,0,1-.4,1.1,1.6,1.6,0,0,1-1.2.4H744.7l.5-.8v14.2l-.6-.7h15.2a1.6,1.6,0,0,1,1.1.5,1.3,1.3,0,0,1,.4,1,1.4,1.4,0,0,1-.4,1.1,1.5,1.5,0,0,1-1.1.4H744.7l.5-.5v14.6l-.3-.3H762a1.6,1.6,0,0,1,1.2.4,1.5,1.5,0,0,1,.4,1.1,1.2,1.2,0,0,1-.4,1,1.6,1.6,0,0,1-1.2.4H743.5a1.4,1.4,0,0,1-1.5-1.5V502.2a1.3,1.3,0,0,1,.4-1A1.6,1.6,0,0,1,743.5,500.7Z" transform="translate(-50.1 -328.3)"/><path class="cls-8" d="M792.8,532a1.9,1.9,0,0,1-.4-1.1c0-.4.3-.7.7-1a1.2,1.2,0,0,1,.9-.3,1.9,1.9,0,0,1,1,.5,10.2,10.2,0,0,0,3.3,2.9,9.5,9.5,0,0,0,4.6,1.1,8.7,8.7,0,0,0,2.8-.5,4.6,4.6,0,0,0,2.3-1.5,3.6,3.6,0,0,0,0-5,6.6,6.6,0,0,0-2.3-1.5l-3.1-1-3.3-1a11.3,11.3,0,0,1-2.9-1.5,8,8,0,0,1-2-2.1,6.2,6.2,0,0,1-.7-3.1,7,7,0,0,1,1.1-3.8,7.3,7.3,0,0,1,3.2-2.5,10.6,10.6,0,0,1,4.5-.9l2.8.3a10.8,10.8,0,0,1,2.8,1.1,8.6,8.6,0,0,1,2.6,2.1,1.5,1.5,0,0,1-.1,2.1,1.4,1.4,0,0,1-.9.3,1.1,1.1,0,0,1-.9-.5,8.4,8.4,0,0,0-2.9-2,8.6,8.6,0,0,0-3.6-.7,7.6,7.6,0,0,0-2.7.5,4.6,4.6,0,0,0-2.2,1.4,3.4,3.4,0,0,0-.8,2.5,3.3,3.3,0,0,0,1,2.4,6.6,6.6,0,0,0,2.5,1.5l3.4,1.1,3.2,1a13,13,0,0,1,2.6,1.4,6.3,6.3,0,0,1,1.8,2.1,6.1,6.1,0,0,1,.7,3.2,5.7,5.7,0,0,1-1.3,3.8,7.6,7.6,0,0,1-3.3,2.5,11.4,11.4,0,0,1-4.6.9,14,14,0,0,1-5.3-1.1A10.9,10.9,0,0,1,792.8,532Z" transform="translate(-50.1 -328.3)"/><path class="cls-8" d="M840.6,510.4h11.8a1.2,1.2,0,0,1,1,.4,1.5,1.5,0,0,1,.4,1.1,1.3,1.3,0,0,1-.4,1,1.5,1.5,0,0,1-1,.4H840.6a1.4,1.4,0,0,1-1-.5,1.2,1.2,0,0,1-.4-1,1.4,1.4,0,0,1,1.4-1.4Zm5.2-7.1a1.4,1.4,0,0,1,1.1.4,1.6,1.6,0,0,1,.5,1.1v25.4a5.8,5.8,0,0,0,.3,2.1,1.7,1.7,0,0,0,1,.9,2.7,2.7,0,0,0,1.2.3l.8-.2h.7a.9.9,0,0,1,.8.4,1.2,1.2,0,0,1,.3.9c0,.5-.2.8-.8,1.2a3.8,3.8,0,0,1-1.9.4h-1.4a6.4,6.4,0,0,1-1.8-.6,4,4,0,0,1-1.7-1.7,8.2,8.2,0,0,1-.6-3.5V504.8a1.4,1.4,0,0,1,1.5-1.5Z" transform="translate(-50.1 -328.3)"/><path class="cls-8" d="M904.9,510.3a1.4,1.4,0,0,1,1.1.4,1.7,1.7,0,0,1,.5,1.2v22.7a1.6,1.6,0,0,1-.5,1.1,1.4,1.4,0,0,1-1.1.4,1.5,1.5,0,0,1-1.1-.4,2.1,2.1,0,0,1-.4-1.1v-6l.9-.3a6.3,6.3,0,0,1-.8,2.8,9,9,0,0,1-2.1,2.7,12.4,12.4,0,0,1-3.3,2.1,10.1,10.1,0,0,1-3.9.8,11,11,0,0,1-6.2-1.8,11.9,11.9,0,0,1-4.2-4.9,14.1,14.1,0,0,1-1.6-6.9,14.5,14.5,0,0,1,1.6-7,12.7,12.7,0,0,1,4.2-4.7,11.4,11.4,0,0,1,6.1-1.7,10.5,10.5,0,0,1,4,.7,10.8,10.8,0,0,1,3.4,2.1,12.9,12.9,0,0,1,2.2,3,8.9,8.9,0,0,1,.8,3.5l-1.1-.7v-6.4a2.1,2.1,0,0,1,.4-1.2A1.5,1.5,0,0,1,904.9,510.3Zm-10.5,23.5a8,8,0,0,0,4.8-1.4,9.2,9.2,0,0,0,3.2-3.8,12.6,12.6,0,0,0,1.2-5.5,11.5,11.5,0,0,0-1.2-5.3,9.2,9.2,0,0,0-3.2-3.8,8,8,0,0,0-4.8-1.4,8.5,8.5,0,0,0-4.7,1.3,9.1,9.1,0,0,0-3.3,3.7,12,12,0,0,0-1.2,5.5,12.6,12.6,0,0,0,1.2,5.5,9.4,9.4,0,0,0,3.3,3.8A7.5,7.5,0,0,0,894.4,533.8Z" transform="translate(-50.1 -328.3)"/><path class="cls-8" d="M937,510.4h11.8a1.2,1.2,0,0,1,1,.4,1.5,1.5,0,0,1,.4,1.1,1.3,1.3,0,0,1-.4,1,1.5,1.5,0,0,1-1,.4H937a1.4,1.4,0,0,1-1-.5,1.2,1.2,0,0,1-.4-1,1.4,1.4,0,0,1,1.4-1.4Zm5.2-7.1a1.4,1.4,0,0,1,1.1.4,1.6,1.6,0,0,1,.5,1.1v25.4a5.8,5.8,0,0,0,.3,2.1,1.7,1.7,0,0,0,1,.9,2.7,2.7,0,0,0,1.2.3l.8-.2h.7a.9.9,0,0,1,.8.4,1.2,1.2,0,0,1,.3.9c0,.5-.3.8-.8,1.2a3.8,3.8,0,0,1-1.9.4h-1.4l-1.9-.6a4.4,4.4,0,0,1-1.6-1.7,8.2,8.2,0,0,1-.6-3.5V504.8a1.4,1.4,0,0,1,1.5-1.5Z" transform="translate(-50.1 -328.3)"/><path class="cls-8" d="M991.6,536.7a14.1,14.1,0,0,1-6.9-1.7,12.5,12.5,0,0,1-4.7-4.7,16.3,16.3,0,0,1,.1-14.3,12.5,12.5,0,0,1,4.4-4.7,11.4,11.4,0,0,1,10-.8,11.4,11.4,0,0,1,3.8,2.3,10.3,10.3,0,0,1,2.6,3.8,13.2,13.2,0,0,1,1.1,5.1,1.6,1.6,0,0,1-.5,1.1,1.5,1.5,0,0,1-1.1.4H980.1l-.6-2.7h20l-.7.6v-1a7.9,7.9,0,0,0-1.6-4.1,8.4,8.4,0,0,0-3.1-2.5,8.6,8.6,0,0,0-7-.3,9.1,9.1,0,0,0-2.9,1.9,13.3,13.3,0,0,0-2.1,3.3,13.2,13.2,0,0,0-.8,4.7,12.6,12.6,0,0,0,1.2,5.5,9.2,9.2,0,0,0,3.5,3.8,11,11,0,0,0,5.5,1.4,8,8,0,0,0,3.2-.5,11.9,11.9,0,0,0,2.5-1.3l1.8-1.8a1.4,1.4,0,0,1,1-.4,1.3,1.3,0,0,1,1,.4,1.5,1.5,0,0,1-.2,2,13.7,13.7,0,0,1-3.9,3.1A10.8,10.8,0,0,1,991.6,536.7Z" transform="translate(-50.1 -328.3)"/></svg>