<svg xmlns="http://www.w3.org/2000/svg" viewBox="0 0 223.5 44.2"><defs><style>.cls-1{font-size:9px;font-family:LevenimMT, Levenim MT;letter-spacing:0.48em;}.cls-1,.cls-2{fill:#fff;}.cls-3{fill:#756cce;}.cls-4{fill:#95dc80;}.cls-5{fill:#95368e;}.cls-6{fill:#6a4a96;opacity:0.9;}</style></defs><g id="Layer_3" data-name="Layer 3"><text class="cls-1" transform="translate(127.3 40.9)">Real Estate</text><path class="cls-2" d="M66.5,27.4V17c0-.8.2-1,1-1h1.9c.7,0,1.3-.2,1.3,1s.6.2.9.1a6.9,6.9,0,0,1,3.8-1.6c4.6-.4,8.2,3,8.6,7.9s-1,7-4.6,8.9a6.7,6.7,0,0,1-7.4-.6c-.3-.2-.6-.7-1-.4s-.2.5-.2,1v5.5c0,.8-.3,1-1,.9s-2.3.4-2.8-.1-.2-1.9-.2-2.9A74.9,74.9,0,0,1,66.5,27.4Zm4-3a4.8,4.8,0,0,0,4.8,5c2.5,0,4.4-2.1,4.6-5a4.8,4.8,0,0,0-4.6-5A4.7,4.7,0,0,0,70.5,24.4Z" transform="translate(-0.5 -2)"/><path class="cls-2" d="M99.6,17.7c.3-1.6.3-1.6,1.9-1.6s2.2,0,2.2,2.3V31.7c0,.9-.1,1.1-1,1h-2c-.7,0-1.2,0-1.1-1s-.4-.3-.7-.2a6.8,6.8,0,0,1-3.7,1.6,7.8,7.8,0,0,1-8.3-6,9.4,9.4,0,0,1,1.1-8,7.2,7.2,0,0,1,10.9-1.7C99.2,17.4,99.3,17.5,99.6,17.7Zm.3,6.7a4.5,4.5,0,0,0-4.6-4.9c-2.6,0-4.6,2-4.6,5a4.7,4.7,0,0,0,4.6,5C98,29.4,99.9,27.4,99.9,24.4Z" transform="translate(-0.5 -2)"/><path class="cls-2" d="M144,29.5a9.1,9.1,0,0,1-10.3,3.3,8.6,8.6,0,0,1-6.1-8.1,8.8,8.8,0,1,1,17.5.1c0,.9-.4.9-1,.9H132.7c-1.2,0-1.2.3-.8,1.1a5.1,5.1,0,0,0,7.3,2,2.4,2.4,0,0,1,2.9-.1Zm-7.6-7.1h3.7c.9,0,.9-.3.6-.9a5.1,5.1,0,0,0-4.5-2.3,4.4,4.4,0,0,0-4.1,2.5c-.3.5-.2.7.4.7Z" transform="translate(-0.5 -2)"/><path class="cls-2" d="M55.5,9.5a8.3,8.3,0,0,1,6.6,3.2c.3.4.3.7-.1,1l-.6.4c-.6.6-1.2,1.4-1.9,1.6s-1-1-1.7-1.5a4,4,0,0,0-1.8-.7,2,2,0,0,0-1.9,1,1.7,1.7,0,0,0,.4,1.9,36.7,36.7,0,0,0,4.3,3.7c1.6,1.4,3.3,2.7,3.9,4.9,1.3,4.7-2.3,8.6-7.3,8.1a7.5,7.5,0,0,1-6.3-4.3c-.3-.4-.2-.7.3-.8l.5-.5c.8-.4,1.5-1.1,2.2-1.2s1,1.1,1.6,1.7a3.2,3.2,0,0,0,3.8.7,2,2,0,0,0,.9-3,9.7,9.7,0,0,0-2.2-2.3,52.2,52.2,0,0,1-4.3-3.9c-1.7-1.8-2.7-3.8-1.7-6.4A5.7,5.7,0,0,1,55.5,9.5Z" transform="translate(-0.5 -2)"/><path class="cls-2" d="M116.8,33.3c-5,0-8.5-2.8-9.3-7.2a8.5,8.5,0,0,1,6.5-10,9.6,9.6,0,0,1,9.8,2.7c.4.6.7,1-.2,1.3l-.7.4c-1.1.7-2,1.2-3.4,0s-5-.8-6.7.7a5.2,5.2,0,0,0-.8,6.2c1.5,2.6,5.8,3.3,8.2,1.1a1.1,1.1,0,0,1,1.6-.1,5.7,5.7,0,0,0,1.6,1.1c.8.5.5.8,0,1.3S119.8,33.1,116.8,33.3Z" transform="translate(-0.5 -2)"/><path class="cls-2" d="M153.3,15.7a6.9,6.9,0,0,1,5,2.1c.4.4.4.7,0,1l-.5.4a4.3,4.3,0,0,1-1.5,1.5c-.8.3-1-.7-1.8-.9s-.4-.3-.5-.3-1.7-.3-2.2.6.5,1.3,1.2,1.7a26.4,26.4,0,0,1,3.7,2,4.8,4.8,0,0,1,2.1,5.5,4.8,4.8,0,0,1-4.1,3.8,7.1,7.1,0,0,1-7-2c-.5-.4-.6-.7,0-1.1v-.2c.6-.5,1-1.4,1.7-1.8s1.3.7,2,1a4.1,4.1,0,0,0,2.2.4,1.7,1.7,0,0,0,1.4-1c.3-.7-.1-1.1-.6-1.6a14.2,14.2,0,0,0-2.2-1.3,12.1,12.1,0,0,1-2.8-1.8,4.5,4.5,0,0,1-1.4-4.9,5,5,0,0,1,4.2-3.4C152.5,15.7,153,15.7,153.3,15.7Z" transform="translate(-0.5 -2)"/></g><g id="Layer_4" data-name="Layer 4"><rect class="cls-3" x="24.5" width="16" height="17" rx="1.9"/><rect class="cls-4" x="27.9" y="24" width="16" height="17" rx="2.4"/><rect class="cls-5" y="14" width="17.4" height="18" rx="2.5"/><rect class="cls-6" x="9.5" y="10" width="26" height="27" rx="1.8"/></g></svg>